<?xml version="1.0" standalone="no"?>
<!DOCTYPE svg PUBLIC "-//W3C//DTD SVG 20010904//EN"
 "http://www.w3.org/TR/2001/REC-SVG-20010904/DTD/svg10.dtd">
<svg version="1.0" xmlns="http://www.w3.org/2000/svg"
 width="840.000000pt" height="840.000000pt" viewBox="0 0 840.000000 840.000000"
 preserveAspectRatio="xMidYMid meet">
<metadata>
Created by potrace 1.14, written by Peter Selinger 2001-2017
</metadata>
<g transform="translate(0.000000,840.000000) scale(0.100000,-0.100000)"
fill="#000000" stroke="none">
<path d="M3928 8395 c-1 -2 -43 -6 -93 -9 -82 -5 -285 -29 -345 -41 -13 -2
-42 -7 -65 -11 -22 -3 -107 -21 -190 -39 -447 -100 -861 -266 -1255 -503 -110
-66 -306 -196 -320 -211 -3 -4 -32 -26 -65 -50 -33 -25 -62 -47 -65 -50 -3 -4
-21 -18 -40 -32 -37 -28 -45 -35 -149 -127 -67 -58 -290 -280 -326 -323 -11
-13 -56 -67 -100 -119 -44 -52 -83 -96 -87 -98 -5 -2 -8 -10 -8 -17 0 -7 -3
-15 -8 -17 -4 -1 -32 -37 -62 -78 -30 -41 -58 -76 -62 -78 -5 -2 -8 -8 -8 -13
0 -5 -15 -30 -34 -56 -115 -162 -283 -476 -381 -713 -26 -63 -51 -124 -56
-135 -13 -31 -106 -314 -119 -365 -15 -55 -13 -46 -51 -205 l-32 -130 -4 -740
c-4 -796 -5 -773 49 -990 11 -44 21 -87 23 -95 24 -119 144 -464 224 -645 31
-68 132 -271 171 -339 55 -99 209 -348 221 -356 3 -3 17 -21 30 -40 42 -61
143 -194 164 -217 11 -11 38 -43 60 -69 67 -81 126 -144 226 -244 105 -103
229 -220 229 -215 0 2 15 -10 33 -26 17 -17 57 -49 87 -72 30 -23 71 -54 90
-70 19 -15 40 -32 47 -37 40 -32 283 -190 292 -190 6 0 11 -4 11 -10 0 -5 7
-10 15 -10 8 0 15 -4 15 -10 0 -5 4 -10 8 -10 5 0 56 -26 113 -58 174 -97 421
-211 569 -262 36 -12 74 -26 85 -31 21 -9 206 -69 228 -73 7 -2 19 -5 27 -9
21 -7 227 -58 259 -63 14 -2 46 -9 71 -14 128 -27 340 -56 495 -68 196 -14
656 -7 790 13 17 2 80 11 140 20 157 22 166 24 310 56 501 113 943 294 1350
553 148 94 194 126 360 254 73 56 101 78 103 85 2 4 13 12 24 18 18 10 20 8
15 -18 -3 -15 -9 -48 -13 -73 l-6 -45 21 19 c24 22 41 74 41 127 0 21 7 42 18
52 9 9 36 35 58 57 l42 41 7 -47 c9 -60 15 -75 27 -68 6 4 7 33 3 73 l-7 68
85 86 c46 48 89 87 96 87 7 0 11 5 9 12 -2 6 7 23 21 38 36 37 69 76 116 135
21 28 44 55 50 60 36 34 237 330 315 465 24 41 45 77 47 79 2 3 10 -4 19 -15
14 -18 15 -16 11 21 -3 33 7 60 57 161 58 115 63 121 81 108 30 -22 41 -16 17
9 -20 22 -29 47 -17 47 3 0 17 -7 30 -16 31 -20 32 -8 4 22 -21 22 -21 23 -4
69 14 36 22 44 36 40 21 -7 25 5 8 22 -20 20 -3 44 26 37 30 -7 33 6 6 23 -19
12 -18 16 21 125 42 119 104 328 113 380 3 17 8 34 10 38 2 3 6 17 9 31 2 13
11 56 20 95 14 64 21 105 41 234 9 56 14 101 21 165 3 33 7 71 10 85 3 14 7
131 9 260 5 240 5 235 -39 490 -11 60 -67 304 -76 330 -5 14 -12 36 -14 50
-10 54 -109 364 -145 455 -89 220 -128 309 -202 460 -49 99 -113 222 -144 272
-30 51 -55 97 -55 103 0 5 -4 10 -10 10 -5 0 -12 11 -16 24 -3 14 -14 32 -25
42 -10 9 -19 21 -19 27 0 5 -13 26 -30 47 -16 21 -30 42 -30 46 0 5 -9 20 -20
34 -11 14 -54 72 -96 130 -42 58 -82 110 -90 116 -8 6 -14 14 -14 18 0 4 -6
13 -12 20 -7 7 -24 27 -38 45 -14 19 -40 49 -57 68 -18 19 -33 36 -33 39 0 3
-46 54 -78 86 -9 10 -20 21 -24 25 -79 89 -275 277 -383 368 -38 32 -76 65
-83 72 -7 7 -16 13 -20 13 -4 0 -23 15 -43 33 -20 17 -47 39 -59 47 -12 8 -28
20 -34 25 -6 6 -34 26 -61 45 -28 19 -51 38 -53 42 -2 4 -8 8 -13 8 -5 0 -31
15 -57 33 -162 114 -483 289 -662 361 -36 15 -73 31 -82 36 -70 39 -547 189
-683 215 -67 12 -300 46 -353 51 -66 6 -609 14 -614 9z"/>
<path d="M4 2675 c3 -663 4 -685 29 -900 35 -287 61 -433 86 -487 l21 -43 -5
50 c-2 28 -9 113 -15 190 -6 77 -18 203 -26 280 -8 77 -13 172 -12 210 1 42 3
54 5 30 5 -52 38 -243 64 -365 37 -176 139 -574 149 -584 19 -19 13 28 -51
359 -23 119 -25 195 -13 525 9 258 16 277 38 104 9 -76 21 -164 26 -194 5 -30
14 -116 20 -190 6 -74 14 -142 17 -150 7 -20 32 74 33 125 3 80 16 84 30 10
32 -178 82 -345 102 -345 9 0 5 39 -17 160 -45 247 -55 318 -66 439 -6 74 -9
171 -5 217 l6 82 -56 114 c-136 271 -236 547 -319 869 l-44 174 3 -680z m175
-152 c1 -28 -3 -43 -11 -43 -10 0 -10 -2 0 -9 11 -6 12 -41 7 -172 -4 -90 -9
-167 -11 -171 -2 -4 0 -10 6 -13 6 -4 10 -38 10 -78 -1 -40 1 -106 4 -147 5
-68 4 -70 -4 -25 -5 28 -12 78 -14 112 -2 34 -7 66 -10 71 -3 5 -9 90 -12 188
-7 194 0 299 19 288 8 -5 8 -2 0 7 -14 14 -18 71 -5 83 9 10 19 -35 21 -91z"/>
<path d="M150 2360 c0 -5 5 -10 11 -10 5 0 7 5 4 10 -3 6 -8 10 -11 10 -2 0
-4 -4 -4 -10z"/>
<path d="M445 2085 c12 -127 54 -398 79 -510 43 -194 112 -369 187 -475 10
-14 29 -78 44 -143 36 -163 125 -422 155 -451 18 -16 5 137 -21 244 -41 169
-49 207 -69 302 -10 53 -22 128 -25 165 l-5 68 15 -40 c9 -22 31 -99 50 -170
56 -221 86 -306 142 -400 29 -49 53 -84 53 -77 0 6 -11 54 -24 105 -13 50 -27
112 -31 137 -3 25 -15 78 -26 119 -11 40 -18 75 -16 78 8 7 76 -76 98 -119 12
-23 44 -112 71 -197 52 -161 115 -324 176 -451 46 -97 145 -271 150 -265 8 8
-122 405 -180 548 -22 54 -38 100 -36 102 7 7 69 -94 160 -264 97 -178 160
-281 216 -349 68 -82 52 -37 -50 144 -60 106 -108 211 -108 237 0 5 25 -24 56
-64 109 -144 233 -256 356 -323 55 -31 75 -37 115 -34 l48 3 -42 23 c-24 12
-43 27 -43 32 0 6 -4 9 -9 8 -15 -5 -184 128 -266 209 -147 144 -246 282 -332
463 -61 127 -88 208 -108 320 -14 78 -18 88 -59 130 -148 151 -193 201 -300
335 -48 61 -98 124 -112 140 -13 17 -24 35 -24 42 0 6 -3 13 -7 15 -10 4 -93
115 -93 124 0 4 -11 21 -23 38 -13 17 -54 83 -92 146 -37 63 -70 117 -72 120
-3 3 -2 -26 2 -65z"/>
<path d="M335 1221 c-3 -5 -1 -12 5 -16 5 -3 10 1 10 9 0 18 -6 21 -15 7z"/>
</g>
</svg>
